<svg stroke="#800000" fill="#800000" xmlns="http://www.w3.org/2000/svg" xmlns:xlink="http://www.w3.org/1999/xlink" version="1.1" x="0px" y="0px" viewBox="0 0 100 125" style="enable-background:new 0 0 100 100;" xml:space="preserve"><title>Artboard 9</title><path d="M79.8,28.6c-0.1-1-1-1.8-2-1.8H66.5c-0.1-3.4-0.2-6.8-0.3-9.1c-0.6-8.6-5.6-11.5-7.6-12.7C57,4,49,1,41.7,5  c-7.1,3.9-8,9.6-8,13.6c0,1.9,0,4.9,0,8.2H22.6c-1,0-1.9,0.8-2,1.8L15,94.8c-0.1,1.1,0.7,2.1,1.8,2.2c0.1,0,0.1,0,0.2,0h66  c0.6,0,1.1-0.2,1.5-0.6c0.4-0.4,0.6-1,0.5-1.5L79.8,28.6z M37.7,18.6c0-3.4,0.7-7.2,5.9-10.1c5.6-3,12-0.7,13-0.1  c1.6,1,5.1,3,5.5,9.5c0.2,2.2,0.3,5.5,0.3,8.8H37.7C37.7,23.5,37.7,20.5,37.7,18.6L37.7,18.6z M19.2,93l5.3-62.2h9.2  c0,5.8,0,11.2,0,11.2c0,1.1,1,2,2.1,2c1,0,1.9-0.8,1.9-1.8c0-0.1,0-0.1,0-0.2c0,0,0-5.4,0-11.2h24.8c0.1,5.9,0,11.2,0,11.3  c0,1.1,0.9,2,2,2l0,0c1.1,0,2-0.9,2-2c0-0.4,0-5.5,0-11.3H76L80.8,93H19.2z"/></svg>
